<svg xmlns="http://www.w3.org/2000/svg" x="0px" y="0px" width="100" height="100" viewBox="0 0 100 100" fill="#ffffff">
<path d="M 53.013672 7.59375 C 44.64267 7.5311107 37.381488 7.9222499 30.34375 8.7089844 C 30.338413 8.707995 30.333468 8.706054 30.328125 8.7050781 A 1.0001 1.0001 0 0 0 29.689453 8.78125 C 26.726381 9.1236868 23.795037 9.5303679 20.837891 10.013672 A 1.0001 1.0001 0 0 0 20.853516 11.988281 C 21.389131 12.067924 21.888541 12.15665 22.355469 12.257812 C 23.490667 12.621367 26.276387 13.974244 26.919922 18.701172 C 27.703922 22.495172 29.665641 81.025297 30.056641 92.904297 C 30.069641 93.283297 30.301391 93.619578 30.650391 93.767578 C 30.999391 93.915578 31.402594 93.849703 31.683594 93.595703 C 32.677594 92.700703 33.779297 91.707031 33.779297 91.707031 C 33.779297 91.707031 33.777347 91.668053 33.777344 91.667969 L 55.769531 75.171875 C 62.855496 79.551138 68.774396 83.709281 73.587891 87.660156 C 73.845891 87.872156 74.193766 87.936031 74.509766 87.832031 C 75.373766 87.548031 77.033203 87.003906 77.033203 87.003906 L 77.025391 86.998047 A 1.0001 1.0001 0 0 0 77.998047 86.058594 C 79.007496 68.897952 77.017131 32.978346 72.978516 13.794922 A 1.0001 1.0001 0 0 0 72.949219 13.683594 C 72.426127 12.114308 71.790299 10.754625 70.6875 9.7382812 C 69.584701 8.7219378 68.064957 8.144481 66.072266 8.0019531 A 1.0001 1.0001 0 0 0 66.052734 8.0019531 C 61.381013 7.7590417 57.067459 7.624084 53.013672 7.59375 z M 53.001953 9.5917969 C 55.133043 9.6080579 57.352502 9.6590825 59.646484 9.734375 A 1.0001 1.0001 0 0 0 60.025391 9.8691406 C 62.735007 10.292726 65.184315 13.107466 66.408203 16.828125 C 68.872092 24.318501 69.392196 36.063473 70.171875 45.613281 C 70.762752 52.856864 71.720415 72.213214 71.855469 74.916016 L 57.886719 65.320312 A 1.0001 1.0001 0 0 0 56.744141 65.326172 L 40.078125 77.082031 C 39.550834 55.655597 39.180786 31.100708 36.613281 15.794922 A 1.0001 1.0001 0 0 0 36.595703 15.710938 C 36.084314 13.727721 35.079379 11.784003 33.630859 10.429688 C 39.64663 9.8444664 45.911647 9.5376955 53.001953 9.5917969 z M 64.451172 9.9355469 C 64.953776 9.9595255 65.416432 9.9714905 65.927734 9.9980469 C 67.626043 10.119519 68.60758 10.541328 69.332031 11.208984 C 70.049168 11.8699 70.560265 12.877318 71.033203 14.285156 C 74.873611 32.588432 76.821409 66.804219 76.023438 84.173828 L 57.544922 72.162109 A 1.0001 1.0001 0 0 0 56.400391 72.199219 L 34.029297 88.976562 C 34.930969 66.664215 32.889853 42.482992 29.994141 16.886719 A 1.0001 1.0001 0 0 0 29.970703 16.757812 C 29.429092 14.591366 28.39355 12.986879 26.876953 11.929688 C 26.529225 11.687292 26.087904 11.557288 25.699219 11.367188 C 27.237759 11.152146 28.780888 10.960565 30.330078 10.78125 C 32.314637 11.362692 33.98238 13.622595 34.650391 16.189453 C 37.227607 31.610172 37.582201 57.168249 38.134766 78.998047 A 1.0001 1.0001 0 0 0 39.710938 79.791016 L 57.328125 67.363281 L 72.40625 77.720703 A 1.0001 1.0001 0 0 0 73.970703 76.845703 C 73.970703 76.845703 72.806264 53.323942 72.164062 45.451172 C 71.389741 35.96698 70.936705 24.192749 68.308594 16.203125 C 67.494501 13.728258 66.177624 11.482662 64.451172 9.9355469 z"></path>
</svg>
